HIERARCHY
ROOT Hips
{
	OFFSET 0.00000 0.00000 0.00000
	CHANNELS 6 Xposition Yposition Zposition Zrotation Yrotation Xrotation 
	JOINT LHipJoint
	{
		OFFSET 0 0 0
		CHANNELS 3 Zrotation Yrotation Xrotation
		JOINT LeftUpLeg
		{
			OFFSET 1.43652 -1.81092 0.91346
			CHANNELS 3 Zrotation Yrotation Xrotation
			JOINT LeftLeg
			{
				OFFSET 2.45984 -6.75837 0.00000
				CHANNELS 3 Zrotation Yrotation Xrotation
				JOINT LeftFoot
				{
					OFFSET 2.63718 -7.24559 0.00000
					CHANNELS 3 Zrotation Yrotation Xrotation
					JOINT LeftToeBase
					{
						OFFSET 0.19690 -0.54098 2.12239
						CHANNELS 3 Zrotation Yrotation Xrotation
						End Site
						{
							OFFSET 0.00000 -0.00000 1.10116
						}
					}
				}
			}
		}
	}
	JOINT RHipJoint
	{
		OFFSET 0 0 0
		CHANNELS 3 Zrotation Yrotation Xrotation
		JOINT RightUpLeg
		{
			OFFSET -1.35116 -1.81092 0.91345
			CHANNELS 3 Zrotation Yrotation Xrotation
			JOINT RightLeg
			{
				OFFSET -2.55576 -7.02189 0.00000
				CHANNELS 3 Zrotation Yrotation Xrotation
				JOINT RightFoot
				{
					OFFSET -2.61938 -7.19669 0.00000
					CHANNELS 3 Zrotation Yrotation Xrotation
					JOINT RightToeBase
					{
						OFFSET -0.32509 -0.89318 2.23646
						CHANNELS 3 Zrotation Yrotation Xrotation
						End Site
						{
							OFFSET -0.00000 -0.00000 1.19625
						}
					}
				}
			}
		}
	}
	JOINT LowerBack
	{
		OFFSET 0 0 0
		CHANNELS 3 Zrotation Yrotation Xrotation
		JOINT Spine
		{
			OFFSET 0.05193 2.08077 -0.11958
			CHANNELS 3 Zrotation Yrotation Xrotation
			JOINT Spine1
			{
				OFFSET 0.04960 2.08447 0.01967
				CHANNELS 3 Zrotation Yrotation Xrotation
				JOINT Neck
				{
					OFFSET 0 0 0
					CHANNELS 3 Zrotation Yrotation Xrotation
					JOINT Neck1
					{
						OFFSET -0.10699 1.82066 0.27584
						CHANNELS 3 Zrotation Yrotation Xrotation
						JOINT Head
						{
							OFFSET 0.14949 1.84747 -0.32279
							CHANNELS 3 Zrotation Yrotation Xrotation
							End Site
							{
								OFFSET 0.04969 1.88916 -0.14562
							}
						}
					}
				}
				JOINT LeftShoulder
				{
					OFFSET 0 0 0
					CHANNELS 3 Zrotation Yrotation Xrotation
					JOINT LeftArm
					{
						OFFSET 3.73629 1.27211 -0.12847
						CHANNELS 3 Zrotation Yrotation Xrotation
						JOINT LeftForeArm
						{
							OFFSET 5.10995 -0.00000 0.00000
							CHANNELS 3 Zrotation Yrotation Xrotation
							JOINT LeftHand
							{
								OFFSET 3.21207 -0.00000 0.00000
								CHANNELS 3 Zrotation Yrotation Xrotation
								JOINT LeftFingerBase
								{
									OFFSET 0 0 0
									CHANNELS 3 Zrotation Yrotation Xrotation
									JOINT LeftHandIndex1
									{
										OFFSET 0.63349 -0.00000 0.00000
										CHANNELS 3 Zrotation Yrotation Xrotation
										End Site
										{
											OFFSET 0.51074 -0.00000 0.00000
										}
									}
								}
								JOINT LThumb
								{
									OFFSET 0 0 0
									CHANNELS 3 Zrotation Yrotation Xrotation
									End Site
									{
										OFFSET 0.51853 -0.00000 0.51853
									}
								}
							}
						}
					}
				}
				JOINT RightShoulder
				{
					OFFSET 0 0 0
					CHANNELS 3 Zrotation Yrotation Xrotation
					JOINT RightArm
					{
						OFFSET -3.70251 1.29541 -0.35354
						CHANNELS 3 Zrotation Yrotation Xrotation
						JOINT RightForeArm
						{
							OFFSET -5.25109 -0.00000 0.00000
							CHANNELS 3 Zrotation Yrotation Xrotation
							JOINT RightHand
							{
								OFFSET -3.28364 -0.00000 0.00000
								CHANNELS 3 Zrotation Yrotation Xrotation
								JOINT RightFingerBase
								{
									OFFSET 0 0 0
									CHANNELS 3 Zrotation Yrotation Xrotation
									JOINT RightHandIndex1
									{
										OFFSET -0.59974 -0.00000 0.00000
										CHANNELS 3 Zrotation Yrotation Xrotation
										End Site
										{
											OFFSET -0.48353 -0.00000 0.00000
										}
									}
								}
								JOINT RThumb
								{
									OFFSET 0 0 0
									CHANNELS 3 Zrotation Yrotation Xrotation
									End Site
									{
										OFFSET -0.49091 -0.00000 0.49091
									}
								}
							}
						}
					}
				}
			}
		}
	}
}
MOTION
Frames: 16
Frame Time: .0083333
6.356 17.2368 -8.6381 0 0 0 0 0 0 -21 0 0 0 0 0 0 0 0 0 0 0 0 0 0 21 0 0 0 0 0 0 0 0 0 0 0 0 0 0 0 0 0 0 0 0 0 0 -16 0 0 21 0 0 11 0 0 0 -8 0 0 0 0 0 0 0 0 0 0 0 0 0 0 0 0 0 0 0 0 8 0 0 0 0 0 0 0 0 0 0 0 0 0 0 0 0 0
6.3560 17.2368 -8.6381 -79.5374 -86.2169 82.6333 0.0000 0.0000 0.0000 -15.2370 -4.6579 -14.0808 3.6092 11.6214 34.4054 1.0997 1.1957 -20.2803 0.0009 0.1948 0.5352 0.0000 0.0000 0.0000 25.9840 10.9839 -14.4996 -4.2230 -12.4514 37.3482 -1.7345 1.6874 -24.4350 -0.4379 -4.2462 11.7704 2.5565 1.7504 1.2931 2.7206 2.4282 -2.1475 1.2741 1.1655 -2.9447 -4.8940 4.5396 -17.0955 3.5444 6.6988 21.1962 2.8611 3.0785 9.1841 0.0000 -0.0000 0.0000 -83.5836 6.3015 71.1247 83.8428 -59.8563 -54.6703 -0.0000 0.0000 -2.3989 27.1125 7.3976 3.7716 -7.1250 0.0000 -0.0000 0.2641 38.2784 -0.0437 0.0000 -0.0000 0.0000 76.3756 -3.2828 72.0640 -94.9553 59.9070 -64.2901 0.0000 -0.0000 -6.3293 -30.6267 21.5218 -12.2537 7.1250 -0.0000 -0.0000 -1.1827 -5.3633 -1.0672
6.3569 17.2366 -8.6376 -80.0762 -86.2213 83.1718 0.0000 0.0000 0.0000 -15.2356 -4.6604 -14.0779 3.6108 11.6236 34.4131 1.1006 1.2138 -20.2959 0.0011 0.2125 0.5838 0.0000 0.0000 0.0000 25.9861 10.9922 -14.5026 -4.2228 -12.4511 37.3471 -1.7317 1.6813 -24.4160 -0.4331 -4.2234 11.7059 2.5139 1.7429 1.3003 2.7502 2.4172 -2.1274 1.3289 1.1615 -2.9310 -4.9428 4.5583 -17.0214 3.5823 6.7269 20.9671 2.8749 3.0998 9.0863 -0.0000 -0.0000 0.0000 -83.6466 6.2893 71.1016 83.8938 -59.8586 -54.7144 -0.0000 0.0000 -2.4028 27.3444 7.5394 3.8816 -7.1250 0.0000 -0.0000 0.4565 38.4542 -0.0736 -0.0000 -0.0000 0.0000 76.3458 -3.3045 72.0452 -95.0571 59.9031 -64.3782 0.0000 -0.0000 -6.3708 -30.6680 21.5347 -12.2800 7.1250 -0.0000 -0.0000 -1.2065 -5.3399 -1.0892
6.3578 17.2365 -8.6373 -80.4118 -86.2073 83.5204 0.0000 0.0000 0.0000 -15.2131 -4.5920 -14.1242 3.6112 11.6242 34.4150 1.1007 1.1722 -20.2802 0.0007 0.1720 0.4725 0.0000 0.0000 0.0000 25.9995 10.9942 -14.5211 -4.2221 -12.4502 37.3437 -1.7316 1.7135 -24.4067 -0.4333 -4.2242 11.7083 2.5293 1.7373 1.3173 2.7566 2.4109 -2.1295 1.3265 1.1579 -2.9424 -4.9719 4.5632 -16.9713 3.6338 6.7283 20.8010 2.8899 3.1096 9.0164 0.0000 -0.0000 0.0000 -83.5985 6.3107 71.1726 84.0906 -59.8676 -54.8845 -0.0000 0.0000 -2.4882 27.2403 7.4640 3.8260 -7.1250 0.0000 -0.0000 0.3707 38.3620 -0.0606 0.0000 -0.0000 0.0000 76.3623 -3.3662 72.0248 -95.1210 59.9007 -64.4334 0.0000 -0.0000 -6.3965 -30.6762 21.5506 -12.2923 7.1250 -0.0000 -0.0000 -1.2092 -5.3204 -1.0921
6.3585 17.2373 -8.6363 -80.7815 -86.2122 83.9055 0.0000 0.0000 0.0000 -15.2215 -4.6422 -14.1197 3.6110 11.6240 34.4144 1.0989 1.2304 -20.2876 0.0009 0.1966 0.5402 0.0000 0.0000 0.0000 25.9898 11.0142 -14.5354 -4.2213 -12.4492 37.3401 -1.7295 1.7260 -24.3887 -0.4349 -4.2317 11.7295 2.5349 1.7425 1.3352 2.7520 2.4192 -2.1404 1.3176 1.1616 -2.9634 -4.9870 4.5632 -16.9575 3.6657 6.7251 20.7157 2.8994 3.1135 8.9827 0.0000 -0.0000 0.0000 -83.5282 6.3013 71.2235 84.2227 -59.8735 -54.9989 -0.0000 0.0000 -2.6137 27.3543 7.6123 3.9204 -7.1250 0.0000 -0.0000 0.4613 38.5365 -0.0734 0.0000 -0.0000 0.0000 76.3767 -3.4396 72.0003 -95.1840 59.8982 -64.4879 0.0000 -0.0000 -6.4615 -30.6783 21.5526 -12.2943 7.1250 -0.0000 -0.0000 -1.2102 -5.3177 -1.0931
6.3593 17.2377 -8.6357 -81.1639 -86.2093 84.3041 0.0000 0.0000 0.0000 -15.2166 -4.6465 -14.1350 3.6108 11.6237 34.4133 1.0979 1.2539 -20.2879 0.0009 0.1909 0.5246 0.0000 0.0000 0.0000 25.9906 11.0257 -14.5534 -4.2202 -12.4478 37.3352 -1.7277 1.7425 -24.3709 -0.4352 -4.2334 11.7344 2.5356 1.7413 1.3521 2.7575 2.4187 -2.1503 1.3223 1.1611 -2.9834 -5.0017 4.5660 -16.9393 3.6914 6.7270 20.6196 2.9069 3.1194 8.9445 0.0000 0.0000 0.0000 -83.5092 6.3169 71.2601 84.3244 -59.8779 -55.0868 -0.0000 0.0000 -2.6938 27.3720 7.6591 3.9473 -7.1250 0.0000 -0.0000 0.4742 38.5904 -0.0749 0.0000 0.0000 0.0000 76.3853 -3.5069 71.9924 -95.2430 59.8959 -64.5390 0.0000 -0.0000 -6.5302 -30.7616 21.5866 -12.3518 7.1250 -0.0000 -0.0000 -1.2570 -5.2616 -1.1367
6.3600 17.2383 -8.6351 -81.5546 -86.2049 84.7147 0.0000 0.0000 0.0000 -15.2103 -4.6496 -14.1519 3.6096 11.6219 34.4072 1.0963 1.2824 -20.2854 0.0008 0.1780 0.4892 0.0000 0.0000 0.0000 25.9924 11.0398 -14.5741 -4.2189 -12.4462 37.3293 -1.7258 1.7600 -24.3532 -0.4363 -4.2385 11.7485 2.5386 1.7409 1.3680 2.7621 2.4194 -2.1658 1.3246 1.1611 -3.0084 -5.0036 4.5666 -16.9363 3.7025 6.7264 20.5611 2.9088 3.1222 8.9234 -0.0000 -0.0000 0.0000 -83.5130 6.3439 71.2932 84.3831 -59.8804 -55.1376 -0.0000 0.0000 -2.7614 27.3552 7.6930 3.9618 -7.1250 0.0000 -0.0000 0.4578 38.6271 -0.0719 -0.0000 -0.0000 0.0000 76.3975 -3.5785 71.9939 -95.2883 59.8941 -64.5782 0.0000 -0.0000 -6.6115 -30.8781 21.6266 -12.4284 7.1250 -0.0000 -0.0000 -1.3235 -5.1912 -1.1986
6.3606 17.2390 -8.6345 -81.9631 -86.2015 85.1439 0.0000 0.0000 0.0000 -15.2057 -4.6569 -14.1675 3.6085 11.6203 34.4016 1.0947 1.3183 -20.2856 0.0007 0.1669 0.4585 0.0000 0.0000 0.0000 25.9932 11.0588 -14.5930 -4.2175 -12.4444 37.3228 -1.7241 1.7747 -24.3369 -0.4377 -4.2451 11.7672 2.5395 1.7412 1.3815 2.7678 2.4210 -2.1835 1.3292 1.1616 -3.0346 -4.9998 4.5649 -16.9462 3.7039 6.7236 20.5362 2.9079 3.1222 8.9168 0.0000 0.0000 0.0000 -83.5483 6.3786 71.3157 84.3869 -59.8806 -55.1409 -0.0000 0.0000 -2.8073 27.3044 7.7170 3.9654 -7.1250 0.0000 -0.0000 0.4125 38.6502 -0.0645 0.0000 0.0000 0.0000 76.4071 -3.6496 72.0013 -95.3203 59.8928 -64.6059 0.0000 -0.0000 -6.6989 -31.0042 21.6601 -12.5065 7.1250 -0.0000 -0.0000 -1.3969 -5.1260 -1.2669
6.3611 17.2396 -8.6338 -82.3856 -86.1970 85.5873 0.0000 0.0000 0.0000 -15.1999 -4.6583 -14.1842 3.6071 11.6183 34.3948 1.0931 1.3525 -20.2859 0.0005 0.1508 0.4143 0.0000 0.0000 0.0000 25.9956 11.0811 -14.6096 -4.2160 -12.4424 37.3156 -1.7227 1.7866 -24.3233 -0.4394 -4.2535 11.7909 2.5421 1.7429 1.3922 2.7738 2.4243 -2.2025 1.3332 1.1628 -3.0605 -4.9929 4.5596 -16.9656 3.7004 6.7164 20.5393 2.9056 3.1189 8.9222 -0.0000 -0.0000 0.0000 -83.6049 6.4176 71.3350 84.3512 -59.8791 -55.1099 -0.0000 0.0000 -2.8309 27.2248 7.7337 3.9604 -7.1250 0.0000 -0.0000 0.3428 38.6628 -0.0535 -0.0000 -0.0000 0.0000 76.4166 -3.7184 72.0103 -95.3376 59.8921 -64.6208 0.0000 -0.0000 -6.7847 -31.1264 21.6840 -12.5779 7.1250 -0.0000 -0.0000 -1.4692 -5.0720 -1.3340
6.3615 17.2401 -8.6331 -82.8212 -86.1946 86.0418 0.0000 0.0000 0.0000 -15.1964 -4.6532 -14.1999 3.6055 11.6161 34.3870 1.0919 1.3804 -20.2862 0.0005 0.1374 0.3776 0.0000 0.0000 0.0000 25.9958 11.1054 -14.6225 -4.2145 -12.4405 37.3085 -1.7216 1.7987 -24.3124 -0.4415 -4.2633 11.8187 2.5436 1.7452 1.4000 2.7799 2.4284 -2.2209 1.3380 1.1645 -3.0841 -4.9908 4.5519 -16.9902 3.6984 6.7070 20.5646 2.9052 3.1137 8.9360 -0.0000 -0.0000 0.0000 -83.6787 6.4562 71.3447 84.2761 -59.8758 -55.0450 -0.0000 0.0000 -2.8331 27.1440 7.7549 3.9575 -7.1250 0.0000 -0.0000 0.2717 38.6805 -0.0423 -0.0000 -0.0000 0.0000 76.4252 -3.7814 72.0197 -95.3414 59.8919 -64.6241 0.0000 -0.0000 -6.8628 -31.2210 21.6929 -12.6281 7.1250 -0.0000 -0.0000 -1.5266 -5.0407 -1.3870
6.3618 17.2406 -8.6325 -83.2642 -86.1932 86.5033 0.0000 0.0000 0.0000 -15.1919 -4.6375 -14.2192 3.6040 11.6139 34.3794 1.0913 1.3911 -20.2857 0.0004 0.1342 0.3688 0.0000 0.0000 0.0000 25.9954 11.1326 -14.6331 -4.2129 -12.4384 37.3012 -1.7207 1.8084 -24.3036 -0.4434 -4.2724 11.8444 2.5436 1.7478 1.4032 2.7869 2.4324 -2.2375 1.3448 1.1662 -3.1035 -4.9953 4.5431 -17.0180 3.7007 6.6968 20.6048 2.9079 3.1076 8.9551 0.0000 0.0000 0.0000 -83.7454 6.4853 71.3529 84.1969 -59.8724 -54.9765 -0.0000 0.0000 -2.8300 27.0676 7.7872 3.9608 -7.1250 0.0000 -0.0000 0.2038 38.7107 -0.0316 0.0000 0.0000 0.0000 76.4305 -3.8349 72.0251 -95.3314 59.8923 -64.6155 0.0000 -0.0000 -6.9268 -31.2733 21.6861 -12.6497 7.1250 -0.0000 -0.0000 -1.5601 -5.0364 -1.4176
6.3621 17.2409 -8.6319 -83.7170 -86.1939 86.9746 0.0000 0.0000 0.0000 -15.1877 -4.6102 -14.2427 3.6025 11.6117 34.3719 1.0915 1.3854 -20.2848 0.0004 0.1368 0.3757 0.0000 0.0000 0.0000 25.9926 11.1597 -14.6437 -4.2115 -12.4366 37.2945 -1.7199 1.8190 -24.2953 -0.4453 -4.2814 11.8697 2.5414 1.7494 1.4034 2.7944 2.4350 -2.2537 1.3534 1.1673 -3.1208 -5.0082 4.5347 -17.0444 3.7061 6.6884 20.6541 2.9135 3.1018 8.9767 0.0000 0.0000 0.0000 -83.7989 6.5083 71.3553 84.1237 -59.8691 -54.9132 -0.0000 0.0000 -2.8243 26.9953 7.8035 3.9567 -7.1250 0.0000 -0.0000 0.1403 38.7234 -0.0217 0.0000 0.0000 0.0000 76.4332 -3.8808 72.0302 -95.3120 59.8931 -64.5986 0.0000 -0.0000 -6.9798 -31.3178 21.6842 -12.6701 7.1250 -0.0000 -0.0000 -1.5879 -5.0285 -1.4432
6.3624 17.2412 -8.6315 -84.1853 -86.1952 87.4612 0.0000 0.0000 0.0000 -15.1820 -4.5775 -14.2682 3.6011 11.6098 34.3653 1.0924 1.3638 -20.2837 0.0006 0.1544 0.4242 0.0000 0.0000 0.0000 25.9894 11.1866 -14.6542 -4.2101 -12.4348 37.2882 -1.7191 1.8310 -24.2864 -0.4465 -4.2873 11.8863 2.5388 1.7507 1.3998 2.8014 2.4370 -2.2681 1.3619 1.1682 -3.1340 -5.0236 4.5278 -17.0700 3.7132 6.6824 20.7088 2.9203 3.0968 8.9996 0.0000 0.0000 0.0000 -83.8350 6.5230 71.3524 84.0622 -59.8664 -54.8600 -0.0000 0.0000 -2.8217 26.9680 7.8239 3.9623 -7.1250 0.0000 -0.0000 0.1155 38.7442 -0.0178 0.0000 0.0000 0.0000 76.4379 -3.9177 72.0310 -95.2824 59.8943 -64.5730 0.0000 -0.0000 -7.0176 -31.3595 21.6888 -12.6926 7.1250 -0.0000 -0.0000 -1.6132 -5.0140 -1.4666
6.3625 17.2415 -8.6311 -84.6592 -86.1985 87.9511 0.0000 0.0000 0.0000 -15.1789 -4.5476 -14.2898 3.5999 11.6081 34.3592 1.0935 1.3426 -20.2847 0.0007 0.1766 0.4853 0.0000 0.0000 0.0000 25.9841 11.2125 -14.6625 -4.2089 -12.4333 37.2825 -1.7184 1.8447 -24.2774 -0.4478 -4.2935 11.9038 2.5339 1.7502 1.3938 2.8089 2.4362 -2.2795 1.3724 1.1677 -3.1430 -5.0448 4.5232 -17.0920 3.7228 6.6805 20.7625 2.9293 3.0936 9.0210 -0.0000 -0.0000 0.0000 -83.8679 6.5341 71.3374 84.0047 -59.8637 -54.8103 -0.0000 0.0000 -2.8143 26.9581 7.8310 3.9642 -7.1250 0.0000 -0.0000 0.1066 38.7513 -0.0164 -0.0000 -0.0000 0.0000 76.4420 -3.9457 72.0307 -95.2468 59.8957 -64.5423 0.0000 -0.0000 -7.0430 -31.3915 21.6986 -12.7134 7.1250 -0.0000 -0.0000 -1.6315 -4.9958 -1.4839
6.3626 17.2416 -8.6308 -85.1658 -86.2013 88.4690 0.0000 0.0000 0.0000 -15.1757 -4.5151 -14.3072 3.5989 11.6067 34.3543 1.0946 1.3222 -20.2867 0.0009 0.1973 0.5420 0.0000 0.0000 0.0000 25.9802 11.2348 -14.6669 -4.2078 -12.4319 37.2773 -1.7177 1.8608 -24.2681 -0.4487 -4.2974 11.9149 2.5308 1.7495 1.3890 2.8156 2.4352 -2.2876 1.3811 1.1672 -3.1491 -5.0632 4.5210 -17.1074 3.7270 6.6817 20.8098 2.9360 3.0916 9.0393 0.0000 0.0000 0.0000 -83.8944 6.5423 71.3125 83.9553 -59.8615 -54.7675 -0.0000 0.0000 -2.8058 26.9599 7.8279 3.9629 -7.1250 0.0000 -0.0000 0.1083 38.7480 -0.0167 0.0000 0.0000 0.0000 76.4473 -3.9662 72.0279 -95.2088 59.8972 -64.5094 0.0000 -0.0000 -7.0557 -31.4167 21.7098 -12.7316 7.1250 -0.0000 -0.0000 -1.6455 -4.9776 -1.4971
6.3627 17.2418 -8.6305 -85.6805 -86.2034 88.9912 0.0000 0.0000 0.0000 -15.1740 -4.4953 -14.3152 3.5981 11.6055 34.3503 1.0954 1.3173 -20.2916 0.0011 0.2177 0.5980 0.0000 0.0000 0.0000 25.9772 11.2548 -14.6679 -4.2068 -12.4307 37.2730 -1.7171 1.8790 -24.2595 -0.4490 -4.2989 11.9192 2.5300 1.7485 1.3836 2.8215 2.4337 -2.2922 1.3879 1.1665 -3.1511 -5.0795 4.5200 -17.1211 3.7307 6.6843 20.8542 2.9421 3.0905 9.0562 0.0000 0.0000 0.0000 -83.9176 6.5487 71.2824 83.9180 -59.8598 -54.7353 -0.0000 0.0000 -2.8039 26.9548 7.8155 3.9558 -7.1250 0.0000 -0.0000 0.1046 38.7337 -0.0161 0.0000 0.0000 0.0000 76.4553 -3.9813 72.0223 -95.1703 59.8987 -64.4760 0.0000 -0.0000 -7.0571 -31.4333 21.7207 -12.7455 7.1250 -0.0000 -0.0000 -1.6540 -4.9616 -1.5054
